<svg width="66" height="52" viewBox="0 0 66 52" fill="none" xmlns="http://www.w3.org/2000/svg">
<path d="M34.4286 26.5777C34.4286 33.4189 32.4948 39.5692 29.4197 43.9823C26.3422 48.3988 22.188 51 17.7143 51C13.2406 51 9.08632 48.3988 6.00886 43.9823C2.93381 39.5692 1 33.4189 1 26.5777C1 19.7366 2.93381 13.5863 6.00886 9.17321C9.08632 4.75667 13.2406 2.15552 17.7143 2.15552C22.188 2.15552 26.3422 4.75667 29.4197 9.17321C32.4948 13.5863 34.4286 19.7366 34.4286 26.5777Z" fill="white" stroke="black" stroke-width="2"/>
<path d="M64.6 25.4222C64.6 32.2633 62.6662 38.4137 59.5912 42.8267C56.5137 47.2433 52.3594 49.8444 47.8857 49.8444C43.412 49.8444 39.2578 47.2433 36.1803 42.8267C33.1053 38.4137 31.1714 32.2633 31.1714 25.4222C31.1714 18.5811 33.1053 12.4308 36.1803 8.0177C39.2578 3.60115 43.412 1 47.8857 1C52.3594 1 56.5137 3.60115 59.5912 8.0177C62.6662 12.4308 64.6 18.5811 64.6 25.4222Z" fill="white" stroke="black" stroke-width="2"/>
<ellipse cx="20.4571" cy="36.5155" rx="6.85714" ry="9.82222" fill="black"/>
<ellipse cx="50.6286" cy="36.5155" rx="6.85714" ry="9.82222" fill="black"/>
</svg>
